<svg id="info" xmlns="http://www.w3.org/2000/svg" width="29.403" height="29.403" viewBox="0 0 29.403 29.403">
  <path id="Path_88" data-name="Path 88" d="M14.7,0A14.7,14.7,0,1,0,29.4,14.7,14.718,14.718,0,0,0,14.7,0Zm0,27.732c-6.633,0-13.03-6.4-13.03-13.03s6.4-13.03,13.03-13.03,13.03,6.4,13.03,13.03S21.334,27.732,14.7,27.732Z" fill="#fff"/>
  <path id="Path_89" data-name="Path 89" d="M146.784,70a1.782,1.782,0,1,0,1.782,1.783A1.784,1.784,0,0,0,146.784,70Z" transform="translate(-132.082 -63.763)" fill="#fff"/>
  <path id="Path_90" data-name="Path 90" d="M151.337,140A1.337,1.337,0,0,0,150,141.337v8.019a1.337,1.337,0,0,0,2.673,0v-8.019A1.337,1.337,0,0,0,151.337,140Z" transform="translate(-136.635 -127.526)" fill="#fff"/>
</svg>
