<svg id="svg" xmlns="http://www.w3.org/2000/svg" xmlns:xlink="http://www.w3.org/1999/xlink" width="300" height="300" viewBox="0, 0, 400,400">
    <g id="svgg"><path id="path0" d="M182.400 71.981 C 181.551 72.516,181.083 74.679,180.800 79.369 L 180.400 86.000 164.238 86.400 C 146.261 86.845,146.175 86.873,146.549 92.091 L 146.800 95.600 168.345 95.813 C 192.224 96.050,191.167 96.291,191.188 90.608 L 191.200 87.215 194.250 89.387 L 197.301 91.559 190.050 96.647 C 180.656 103.240,179.430 105.099,181.286 109.935 C 183.091 114.640,208.829 101.279,212.196 93.889 C 215.038 87.652,188.497 68.137,182.400 71.981 M119.657 87.657 C 118.382 88.932,118.001 92.429,118.886 94.735 C 119.687 96.823,134.837 96.573,135.972 94.453 C 137.241 92.081,136.964 89.764,135.200 88.000 C 133.089 85.889,121.677 85.637,119.657 87.657 M249.117 107.548 C 248.097 108.263,247.097 110.397,246.469 113.202 C 244.935 120.058,242.233 121.451,236.549 118.317 C 230.797 115.145,228.708 115.314,224.382 119.302 C 220.430 122.945,219.085 129.571,222.065 130.714 C 224.495 131.647,227.799 131.188,229.758 129.647 C 231.712 128.110,231.758 128.110,234.285 129.647 C 237.789 131.778,241.727 131.595,248.174 129.000 L 253.641 126.800 254.875 122.400 C 255.554 119.980,256.254 117.550,256.430 117.000 C 256.623 116.397,258.169 116.000,260.328 116.000 C 264.381 116.000,264.726 116.354,266.423 122.251 C 268.346 128.931,280.669 132.931,287.285 129.022 C 290.933 126.867,296.333 132.267,294.178 135.915 C 290.695 141.811,294.640 154.602,300.386 156.047 C 306.965 157.701,307.313 158.018,307.044 162.121 C 306.782 166.109,306.617 166.273,300.800 168.336 C 294.532 170.559,290.717 183.133,294.612 188.732 L 296.513 191.464 293.488 194.196 C 290.317 197.062,288.779 197.154,285.222 194.692 C 283.107 193.228,281.489 193.315,277.421 195.109 C 275.540 195.939,272.706 197.166,271.125 197.836 C 267.967 199.175,265.949 205.049,266.534 211.200 C 266.797 213.971,266.843 214.002,270.964 214.241 L 275.128 214.481 276.235 210.683 C 277.726 205.571,280.377 204.554,285.342 207.188 C 296.386 213.047,312.622 196.965,306.234 186.494 C 305.263 184.902,304.196 183.484,303.863 183.343 C 303.234 183.076,304.415 180.583,306.271 178.258 C 306.860 177.520,308.808 176.669,310.600 176.366 C 316.631 175.347,317.600 173.479,317.600 162.874 C 317.600 150.499,316.759 148.965,309.197 147.547 C 303.892 146.551,302.765 143.277,305.807 137.698 C 307.717 134.195,308.139 132.662,307.688 130.865 C 306.904 127.741,297.545 118.179,293.475 116.344 L 290.200 114.867 285.355 117.408 C 279.076 120.700,277.204 120.007,275.066 113.600 C 272.807 106.830,271.936 106.400,260.489 106.400 C 253.328 106.400,250.323 106.703,249.117 107.548 M148.000 128.543 C 133.212 134.566,133.269 134.483,135.177 147.200 L 135.837 151.600 131.960 155.550 L 128.082 159.499 120.832 158.534 C 110.366 157.140,110.204 157.262,104.553 170.748 C 100.772 179.771,100.000 182.406,100.000 186.295 L 100.000 190.978 106.000 195.574 L 112.000 200.169 112.000 204.421 L 112.000 208.672 106.200 212.867 C 97.351 219.268,97.191 220.518,103.259 235.787 C 109.278 250.934,108.142 249.908,118.291 249.369 L 126.800 248.918 130.867 252.900 C 134.922 256.871,134.932 256.893,134.315 260.641 C 133.327 266.634,133.476 274.110,134.600 274.968 C 137.971 277.542,157.242 284.800,160.707 284.800 C 165.156 284.800,165.615 284.474,171.129 277.400 C 175.268 272.090,175.401 272.000,179.115 272.000 L 182.892 272.000 187.600 278.400 L 192.308 284.800 197.154 284.771 C 201.135 284.748,203.853 283.983,212.375 280.489 C 225.881 274.951,226.145 274.620,224.882 264.768 L 223.939 257.419 227.963 253.561 L 231.986 249.704 239.136 250.606 C 249.383 251.900,249.215 252.031,255.096 238.180 C 262.025 221.861,261.941 220.891,253.000 214.011 L 248.000 210.164 248.000 205.516 L 248.000 200.868 253.583 196.414 C 262.420 189.363,262.393 189.587,256.238 174.205 C 249.946 158.480,249.335 158.044,236.225 159.912 L 232.051 160.507 228.387 156.786 L 224.722 153.066 225.555 147.933 C 227.555 135.608,227.548 135.599,211.848 128.933 C 196.222 122.298,195.674 122.357,188.803 131.438 L 184.688 136.877 180.168 136.638 L 175.648 136.400 171.624 131.076 C 165.086 122.425,163.452 122.250,148.000 128.543 M251.125 133.127 C 239.212 137.695,233.279 144.462,235.686 150.735 C 236.833 153.723,242.988 152.355,247.679 148.067 C 257.358 139.221,268.678 140.227,276.936 150.669 C 285.457 161.444,282.052 174.472,268.879 181.493 L 263.918 184.138 264.159 187.869 L 264.400 191.600 268.187 191.843 C 289.267 193.198,299.896 159.449,284.057 141.455 C 277.150 133.608,260.712 129.451,251.125 133.127 M180.255 147.173 L 191.600 147.147 195.826 141.603 C 199.547 136.722,200.264 136.143,201.826 136.756 C 202.802 137.139,206.120 138.541,209.200 139.873 L 214.800 142.294 214.538 150.947 L 214.276 159.600 220.280 165.522 L 226.284 171.445 232.942 170.900 C 236.604 170.601,240.264 170.276,241.075 170.178 C 242.572 169.997,242.604 170.056,247.109 181.400 L 248.776 185.599 243.309 189.576 L 237.842 193.553 237.384 204.475 C 236.841 217.418,236.542 216.404,242.071 220.373 C 248.715 225.142,248.590 224.630,245.162 233.037 L 242.130 240.474 236.065 239.480 C 226.460 237.904,226.857 237.779,219.817 244.600 L 213.418 250.800 213.823 259.006 C 214.104 264.686,213.947 267.394,213.314 267.802 C 212.811 268.127,209.318 269.674,205.551 271.240 L 198.701 274.088 196.166 270.444 C 194.772 268.440,192.758 265.720,191.691 264.400 L 189.752 262.000 180.276 261.860 C 168.281 261.683,168.790 261.496,163.586 268.018 L 159.195 273.521 151.798 270.427 C 145.317 267.717,144.418 267.102,144.542 265.467 C 144.620 264.440,144.942 260.796,145.259 257.369 L 145.835 251.138 138.994 244.297 L 132.153 237.456 126.677 238.088 C 116.025 239.316,116.931 239.779,113.507 231.358 L 110.481 223.916 116.011 219.881 C 122.488 215.155,122.258 215.704,122.533 204.324 C 122.784 193.888,122.461 193.147,115.397 187.947 L 110.695 184.485 114.073 176.843 C 117.025 170.164,117.687 169.218,119.325 169.342 C 120.356 169.420,124.018 169.744,127.461 170.062 L 133.723 170.640 140.112 164.320 L 146.502 158.000 146.251 149.752 L 146.000 141.503 153.200 138.538 L 160.400 135.572 164.655 141.386 L 168.910 147.200 180.255 147.173 M84.963 138.593 C 83.350 139.370,83.155 139.972,83.363 143.539 L 83.600 147.600 92.460 147.825 C 101.902 148.065,103.200 147.449,103.200 142.726 C 103.200 138.364,91.123 135.627,84.963 138.593 M168.441 161.701 C 147.872 166.520,135.197 184.579,136.226 207.600 C 138.757 264.254,224.125 261.230,223.988 204.491 C 223.919 175.974,196.773 155.062,168.441 161.701 M187.200 172.177 C 205.577 177.702,217.452 197.353,211.996 213.211 C 202.039 242.153,165.769 246.816,150.694 221.091 C 136.572 196.994,160.978 164.293,187.200 172.177 M288.100 223.000 C 286.632 224.224,286.396 225.403,286.211 232.400 L 286.000 240.400 278.000 240.598 C 266.224 240.891,264.000 241.811,264.000 246.392 C 264.000 251.326,263.578 251.200,280.057 251.200 C 297.393 251.200,296.800 251.467,296.800 243.653 C 296.800 238.323,296.491 238.378,302.638 242.600 C 305.360 244.470,308.130 246.245,308.794 246.544 C 309.620 246.916,309.673 247.105,308.962 247.144 C 308.391 247.175,303.081 250.639,297.162 254.841 L 286.400 262.483 286.400 265.881 C 286.400 274.557,290.761 273.606,308.480 261.066 C 324.318 249.858,323.975 250.173,323.975 246.800 C 323.975 243.427,324.067 243.516,311.200 234.375 C 291.787 220.583,291.289 220.338,288.100 223.000 M77.800 242.130 C 77.173 242.383,76.800 244.149,76.800 246.867 L 76.800 251.200 87.572 251.200 C 99.186 251.200,100.000 250.889,100.000 246.453 C 100.000 242.337,84.680 239.354,77.800 242.130 M233.825 274.244 C 233.161 274.666,232.779 278.168,232.625 285.232 L 232.400 295.600 186.800 296.017 C 161.720 296.246,141.091 296.516,140.958 296.617 C 140.825 296.717,140.825 298.690,140.958 301.000 L 141.200 305.200 191.269 305.406 L 241.338 305.612 242.269 303.568 C 242.781 302.444,243.200 298.779,243.200 295.423 L 243.200 289.321 245.000 290.975 C 245.990 291.884,249.784 294.647,253.431 297.114 C 257.078 299.581,259.675 301.600,259.203 301.600 C 258.731 301.600,252.604 305.650,245.587 310.600 L 232.831 319.600 232.815 323.800 L 232.800 328.000 237.013 328.000 C 241.144 328.000,241.534 327.782,257.213 316.686 C 280.522 300.190,280.500 301.953,257.600 285.848 C 239.070 272.817,237.374 271.989,233.825 274.244 M105.257 297.257 C 103.982 298.532,103.601 302.029,104.486 304.335 C 105.289 306.428,121.235 306.177,122.372 304.053 C 123.641 301.681,123.364 299.364,121.600 297.600 C 119.481 295.481,107.289 295.225,105.257 297.257 " stroke="none" fill="white" fill-rule="evenodd"></path>
</g>
</svg>