<svg id="svgg" xmlns="http://www.w3.org/2000/svg" width="31.707" height="33.012" viewBox="0 0 31.707 33.012">
  <path id="path0" d="M90.346,71.548c-.109.069-.169.346-.205.948l-.051.851-2.073.051c-2.306.057-2.317.061-2.269.73l.032.45,2.764.027c3.063.03,2.928.061,2.93-.668l0-.435.391.279.391.279-.93.653c-1.205.846-1.362,1.084-1.124,1.7.232.6,3.533-1.11,3.965-2.058.365-.8-3.04-3.3-3.822-2.81M82.3,73.559a1.008,1.008,0,0,0-.1.908c.1.268,2.046.236,2.192-.036a.659.659,0,0,0-.1-.828,2.6,2.6,0,0,0-1.994-.044M98.9,76.11a1.317,1.317,0,0,0-.34.725c-.2.879-.543,1.058-1.272.656s-1.006-.385-1.561.126c-.507.467-.679,1.317-.3,1.464a1.086,1.086,0,0,0,.987-.137c.251-.2.257-.2.581,0a1.867,1.867,0,0,0,1.782-.083l.7-.282.158-.564c.087-.31.177-.622.2-.693s.223-.128.5-.128c.52,0,.564.045.782.8a2.06,2.06,0,0,0,2.676.869c.468-.276,1.161.416.884.884-.447.756.059,2.4.8,2.582.844.212.889.253.854.779s-.055.533-.8.8a2.072,2.072,0,0,0-.794,2.616l.244.35-.388.35c-.407.368-.6.379-1.06.064-.271-.188-.479-.177-1,.053-.241.106-.6.264-.808.35-.405.172-.664.925-.589,1.714.034.355.04.359.568.39l.534.031.142-.487c.191-.656.531-.786,1.168-.448,1.417.752,3.5-1.311,2.68-2.655a1.686,1.686,0,0,0-.3-.4c-.081-.034.071-.354.309-.652a1.083,1.083,0,0,1,.555-.243c.774-.131.9-.37.9-1.731,0-1.587-.108-1.784-1.078-1.966q-1.021-.192-.435-1.263c.245-.449.3-.646.241-.877a5.5,5.5,0,0,0-1.823-1.863l-.42-.189-.622.326c-.805.422-1.046.333-1.32-.488-.29-.868-.4-.924-1.87-.924a3.359,3.359,0,0,0-1.459.147M85.933,78.8c-1.9.773-1.89.762-1.645,2.393l.085.564-.5.507-.5.507-.93-.124c-1.343-.179-1.363-.163-2.088,1.567a4.8,4.8,0,0,0-.584,1.994v.6l1.539,1.179v1.091l-.744.538c-1.135.821-1.156.981-.377,2.94.772,1.943.626,1.811,1.928,1.742l1.091-.058c1.042,1.02,1.043,1.023.964,1.5a3.746,3.746,0,0,0,.037,1.838,13.679,13.679,0,0,0,3.349,1.261c.571,0,.63-.042,1.337-.949.531-.681.548-.693,1.024-.693h.484l.6.821.6.821.622,0a4.8,4.8,0,0,0,1.952-.549c1.732-.71,1.766-.753,1.6-2.017l-.121-.943.516-.495.516-.495.917.116c1.314.166,1.293.183,2.047-1.594.889-2.093.878-2.218-.269-3.1l-.641-.493V88.081l.716-.571c1.134-.9,1.13-.876.341-2.849-.807-2.017-.885-2.073-2.567-1.833l-.535.076-.94-.955.107-.658c.257-1.581.256-1.582-1.758-2.437s-2.075-.844-2.956.321l-.528.7-1.16-.061-.516-.683c-.839-1.11-1.048-1.132-3.03-.325m13.229.588c-1.528.586-2.289,1.454-1.98,2.259.147.383.937.208,1.538-.342a2.373,2.373,0,0,1,3.753.334c1.093,1.382.656,3.053-1.034,3.954l-.636.339.031.479.031.479.486.031c2.7.174,4.068-4.155,2.036-6.464a4.456,4.456,0,0,0-4.224-1.068m-7.636,1.8c1.019-1.337,1.111-1.412,1.312-1.333.125.049.551.229,1.664.71l-.034,1.11-.034,1.11,1.54,1.519c1.324-.108,1.793-.15,1.9-.163.192-.023.2-.016.988,1.978l-.7.51-.7.51-.059,1.4c-.07,1.66-.108,1.53.6,2.039.852.612.836.546.4,1.624l-.389.954-.778-.128c-1.175-.193-1.183-.216-1.994.569l-.091.088-.821.8c.088,1.781.068,2.129-.013,2.181-.065.042-.513.24-1.875.806-.5-.725-.762-1.073-1.148-1.551L90.074,95.9c-1.539-.023-1.473-.047-2.141.79l-.563.706c-1.78-.745-1.9-.823-1.88-1.033.01-.132.051-.6.166-1.838L83.9,92.774l-.7.081c-1.366.158-1.25.217-1.689-.863l-.388-.955.709-.518c.831-.606.8-.536.837-2,.032-1.339-.009-1.434-.915-2.1l-.6-.444c.812-1.837.9-1.958,1.107-1.942.132.01.6.052,1.847.167l1.639-1.621-.064-2.116,1.847-.761L88.616,81.2m-10.768-1.1c-.207.1-.232.177-.205.634l.03.521,1.137.029c1.211.031,1.378-.048,1.378-.654,0-.56-1.549-.911-2.339-.53m10.708,2.964a5.452,5.452,0,0,0-4.132,5.888c.325,7.267,11.275,6.879,11.258-.4a5.746,5.746,0,0,0-7.125-5.489M90.962,84.4c2.357.709,3.881,3.229,3.181,5.264-1.277,3.713-5.93,4.311-7.864,1.011-1.812-3.091,1.319-7.286,4.683-6.275M103.9,90.92c-.188.157-.219.308-.242,1.206l-.027,1.026-1.026.025c-1.511.038-1.8.156-1.8.743,0,.633-.054.617,2.06.617,2.224,0,2.148.034,2.148-.968,0-.684-.04-.677.749-.135.349.24.7.468.79.506.106.048.113.072.022.077a12.941,12.941,0,0,0-1.514.987l-1.381.98v1.221c-.009.556.559.206,2.832-1.4,2.032-1.438,1.988-1.4,1.988-1.83s.012-.421-1.639-1.594c-2.49-1.769-2.554-1.8-2.963-1.459M76.928,93.374c-.08.032-.128.259-.128.608v.556h1.382c1.49,0,1.594-.04,1.594-.609,0-.528-1.965-.911-2.848-.555m20.014,4.119c-.085.054-.134.5-.183,2.739l-5.849.053c-3.217.029-5.863.064-5.88.077a2.655,2.655,0,0,0,0,.562l.031.539,6.423.026,6.423.026.119-.262a3.643,3.643,0,0,0,.119-1.045v-.783c.358.329,2.113,1.575,2.053,1.575a18.805,18.805,0,0,0-1.747,1.154l-1.636,1.154a2.791,2.791,0,0,0,0,1.078c.134.269.871.114,3.132-1.451,2.99-2.116,2.987-1.89.05-3.956-2.377-1.672-2.595-1.778-3.05-1.489M80.45,100.445a1.008,1.008,0,0,0-.1.908,3.349,3.349,0,0,0,2.294-.036.659.659,0,0,0-.1-.828,2.854,2.854,0,0,0-2.1-.044" transform="translate(-76.8 -71.484)" fill="#00abff" fill-rule="evenodd"/>
</svg>
