<svg xmlns="http://www.w3.org/2000/svg" width="1045.431" height="417.472" viewBox="0 0 1045.431 417.472">
  <g id="SVG" transform="translate(-181.441 -208.558)">
    <g id="Icon" transform="translate(181.441 237.503)">
      <g id="Zmogai" transform="translate(87.165 97.177)">
        <circle id="Ellipse_3" data-name="Ellipse 3" cx="16.248" cy="16.248" r="16.248" transform="translate(51.741)"/>
        <circle id="Ellipse_4" data-name="Ellipse 4" cx="11.343" cy="11.343" r="11.343" transform="translate(11.889 19.007)"/>
        <circle id="Ellipse_5" data-name="Ellipse 5" cx="11.343" cy="11.343" r="11.343" transform="translate(100.177 19.007)"/>
        <path id="Path_2" data-name="Path 2" d="M32.8,0C50.917,0,65.6,23.47,65.6,52.421c0,14.91-10.245,38.06-10.245,38.06s-10.651-6.3-22.815-6.3-21.575,7.368-21.575,7.368S0,68.056,0,52.421C0,23.47,14.686,0,32.8,0Z" transform="translate(34.574 33.108)"/>
        <path id="Path_3" data-name="Path 3" d="M23.232,0c12.83,0,23.232,16.549,23.232,36.962C46.469,50.724,39.207,63.8,39.207,63.8s-7.541-4.445-16.158-4.445a27.493,27.493,0,0,0-15.28,5.2S.315,51.21,0,36.962C0,16.549,10.4,0,23.232,0Z" transform="translate(87.675 42.315)"/>
        <path id="Path_4" data-name="Path 4" d="M23.232,0c12.83,0,23.232,16.549,23.232,36.962C46.469,50.724,39.207,63.8,39.207,63.8s-7.541-4.445-16.158-4.445a27.493,27.493,0,0,0-15.28,5.2S.315,51.21,0,36.962C0,16.549,10.4,0,23.232,0Z" transform="translate(0 42.315)"/>
      </g>
      <g id="Ratas">
        <path id="I_Raidė" data-name="I Raidė" d="M345.617,21.052,322.4,44.232c1.078,1.431,2.162,2.909,2.952,4.078a115.12,115.12,0,0,1,0,128.9c-.723,1.071-1.733,2.452-2.75,3.809l23.348,23.194c9.931-12.626,31.772-45.578,31.708-91.063-.063-45.554-22.053-79.18-32.036-92.1m.49-10.885s38.817,40.448,38.9,102.974-38.619,101.887-38.619,101.887l-33.579-33.357s4.473-5.67,6.438-8.579a107.763,107.763,0,0,0,0-120.664c-2.093-3.1-6.642-8.824-6.642-8.824Z" transform="translate(-74.618 42.355)"/>
        <path id="Raudona_Apacia" data-name="Raudona Apacia" d="M108.289,333.556a108.774,108.774,0,0,1-21.773-2.2,107.312,107.312,0,0,1-38.557-16.231c-5.714-3.863-15.971-13.177-15.971-13.177l-33.38,33.428s37.976,42.513,103.017,45.257c65.307,2.925,106.627-36.414,106.627-36.414l-33.51-33.51s-3.96,2.958-6.12,4.414a107.479,107.479,0,0,1-60.332,18.431Z" transform="translate(46.865 -70.532)" fill="#db2f36"/>
        <path id="Zalia_Kaire" data-name="Zalia Kaire" d="M3.293,184.531S-6.027,174.274-9.885,168.56a107.765,107.765,0,0,1,0-120.661C-6.022,42.185,3.293,31.928,3.293,31.928L-30.129-1.549S-76.276,39.918-75.55,110.135c.38,67.627,45.514,107.8,45.514,107.8Z" transform="translate(75.559 46.888)" fill="#065e4d"/>
        <path id="Geltona_Top" data-name="Geltona Top" d="M31.959,3.316A107.561,107.561,0,0,1,86.514-26.1a108.969,108.969,0,0,1,43.5,0A107.312,107.312,0,0,1,168.593-9.861c1.886,1.274,3.734,2.61,5.687,4.118l33.634-33.521S167.465-77.51,103.771-75.414C38.346-73.963-1.462-30.159-1.462-30.159Z" transform="translate(46.892 75.497)" fill="#ff0"/>
      </g>
    </g>
    <text id="_EARN" data-name="*EARN" transform="translate(487.312 446.558)" font-size="250" font-family="Roboto-Light, Roboto" font-weight="300" letter-spacing="-0.01em"><tspan x="0" y="0">*EARN</tspan></text>
    <text id="žiežmariai" transform="translate(540.784 603.03)" font-size="90" font-family="Roboto-Medium, Roboto" font-weight="500" letter-spacing="0.23em"><tspan x="0" y="0">ŽIEŽMARIAI</tspan></text>
    <path id="Žalia_Linija" data-name="Žalia Linija" d="M452.637,769.349c116,0,173.137-109.409,173.137-109.409s558.411-.433,706.016,0" transform="translate(-104.922 -163.361)" fill="none" stroke="#065e4d" stroke-linecap="round" stroke-width="14"/>
  </g>
</svg>
