<svg xmlns="http://www.w3.org/2000/svg" width="1536.559" height="608.008" viewBox="0 0 1536.559 608.008">
  <g id="SVG" transform="translate(-181.441 -237.503)">
    <g id="Zmogai">
      <circle id="Ellipse_3" data-name="Ellipse 3" cx="26.5" cy="26.5" r="26.5" transform="translate(408 396)"/>
      <circle id="Ellipse_4" data-name="Ellipse 4" cx="18.5" cy="18.5" r="18.5" transform="translate(343 427)"/>
      <circle id="Ellipse_5" data-name="Ellipse 5" cx="18.5" cy="18.5" r="18.5" transform="translate(487 427)"/>
      <path id="Path_2" data-name="Path 2" d="M53.5,0C83.047,0,107,38.28,107,85.5c0,24.318-16.71,62.076-16.71,62.076s-17.372-10.282-37.211-10.282S17.89,149.312,17.89,149.312,0,111,0,85.5C0,38.28,23.953,0,53.5,0Z" transform="translate(380 450)"/>
      <path id="Path_3" data-name="Path 3" d="M37.891,0C58.817,0,75.782,26.991,75.782,60.285c.01,22.447-11.835,43.769-11.835,43.769s-12.3-7.25-26.354-7.25-24.922,8.474-24.922,8.474S.513,83.525,0,60.285C0,26.991,16.964,0,37.891,0Z" transform="translate(466.609 465.017)"/>
      <path id="Path_4" data-name="Path 4" d="M37.891,0C58.817,0,75.782,26.991,75.782,60.285c.01,22.447-11.835,43.769-11.835,43.769s-12.3-7.25-26.354-7.25-24.922,8.474-24.922,8.474S.513,83.525,0,60.285C0,26.991,16.964,0,37.891,0Z" transform="translate(323.609 465.017)"/>
    </g>
    <g id="Group_1" data-name="Group 1">
      <path id="I_Raidė" data-name="I Raidė" d="M366.446,27.921,328.571,65.728c1.759,2.334,3.527,4.744,4.815,6.652a187.763,187.763,0,0,1,0,210.24c-1.18,1.747-2.826,4-4.486,6.212l38.081,37.83c16.2-20.593,51.82-74.339,51.717-148.526-.1-74.3-35.969-129.144-52.252-150.215m.8-17.754S430.556,76.138,430.7,178.12,367.71,344.3,367.71,344.3l-54.768-54.406s7.3-9.248,10.5-13.992a175.764,175.764,0,0,0,0-196.8c-3.413-5.051-10.834-14.391-10.834-14.391Z" transform="translate(257 313)"/>
      <path id="Raudona_Apacia" data-name="Raudona Apacia" d="M177.5,353.5a177.41,177.41,0,0,1-35.513-3.584A175.028,175.028,0,0,1,79.1,323.443c-9.32-6.3-26.049-21.492-26.049-21.492L-1.392,356.472s61.94,69.34,168.022,73.815c106.517,4.771,173.911-59.392,173.911-59.392l-54.656-54.656s-6.459,4.825-9.982,7.2A175.3,175.3,0,0,1,177.5,353.5Z" transform="translate(257 313)" fill="#db2f36"/>
      <path id="Zalia_Kaire" data-name="Zalia Kaire" d="M53.049,301.951s-15.2-16.729-21.492-26.049a175.766,175.766,0,0,1,0-196.8c6.3-9.32,21.492-26.049,21.492-26.049L-1.462-1.549S-76.729,66.085-75.545,180.61c.619,110.3,74.234,175.821,74.234,175.821Z" transform="translate(257 313)" fill="#065e4d"/>
      <path id="Geltona_Top" data-name="Geltona Top" d="M53.049,53.049A175.915,175.915,0,0,1,275.9,31.557c3.076,2.078,6.091,4.257,9.276,6.717L340.033-16.4S274.061-78.78,170.175-75.362C63.465-72.994-1.462-1.549-1.462-1.549Z" transform="translate(257 313)" fill="#ff0"/>
    </g>
    <text id="_EARN" data-name="*EARN" transform="translate(695 613)" font-size="350" font-family="Roboto-Light, Roboto" font-weight="300" letter-spacing="-0.01em"><tspan x="0" y="0">*EARN</tspan></text>
    <text id="žiežmariai" transform="translate(842 788)" font-size="110" font-family="Roboto-Medium, Roboto" font-weight="500" letter-spacing="0.23em"><tspan x="0" y="0">ŽIEŽMARIAI</tspan></text>
    <path id="Linija" d="M452.637,838.51c189.193,0,282.39-178.448,282.39-178.448s732.183-.707,972.929,0" fill="none" stroke="#065e4d" stroke-width="14"/>
  </g>
</svg>
